<svg width="168.000000" height="50.000000" viewBox="0 0 168 50" fill="none" xmlns="http://www.w3.org/2000/svg" xmlns:xlink="http://www.w3.org/1999/xlink">
	<desc>
			Created with Pixso.
	</desc>
	<defs>
		<clipPath id="clip115_270">
			<rect id="app-store-5768091a665de29ed90932b12cc1dc34 1" width="168.000000" height="50.000000" fill="white" fill-opacity="0"/>
		</clipPath>
	</defs>
	<rect id="app-store-5768091a665de29ed90932b12cc1dc34 1" width="168.000000" height="50.000000" fill="#FFFFFF" fill-opacity="0"/>
	<g clip-path="url(#clip115_270)">
		<path id="Vector" d="M4.19 0L163.8 0C166.12 0 168 1.86 168 4.16L168 45.83C168 48.13 166.12 50 163.8 50L4.19 50C1.88 50 0 48.13 0 45.83L0 4.16C0 1.86 1.88 0 4.19 0Z" fill="#151515" fill-opacity="1.000000" fill-rule="evenodd"/>
		<path id="Vector" d="M35.37 14.75C38.93 14.75 41.21 18.18 41.21 18.18C41.21 18.18 37.73 20.06 37.73 24.14C37.73 28.97 42.1 30.38 42.1 30.38C42.1 30.38 38.65 38.52 34.78 38.52C32.61 38.52 32.46 37.27 29.57 37.27C27.06 37.27 26.22 38.51 24.3 38.51C20.65 38.51 15.94 30.58 15.94 24.13C15.94 17.43 20.71 14.75 23.7 14.75C26.33 14.75 27.43 16.29 29.54 16.29C31.32 16.29 32.73 14.75 35.37 14.75L35.37 14.75ZM34.76 7.92C35.28 11.21 32.29 15.27 28.71 15.14C28.18 10.96 32.04 8.14 34.75 7.92L34.76 7.92Z" fill="#FFFFFF" fill-opacity="1.000000" fill-rule="evenodd"/>
		<mask id="mask115_252" mask-type="alpha" maskUnits="userSpaceOnUse" x="52.729614" y="8.126465" width="100.212036" height="36.383301">
			<path id="Vector" d="M52.72 8.12L152.94 8.12L152.94 44.5L52.72 44.5L52.72 8.12L52.72 8.12Z" fill="#FFFFFF" fill-opacity="1.000000" fill-rule="nonzero"/>
		</mask>
		<g mask="url(#mask115_252)">
			<path id="Vector" d="M61.96 32.6L60.54 28.21C60.39 27.77 60.11 26.71 59.7 25.05L59.65 25.05C59.48 25.77 59.22 26.82 58.85 28.22L57.46 32.6L61.96 32.6L61.96 32.6ZM66.85 39.6L63.99 39.6L62.43 34.67L56.99 34.67L55.5 39.6L52.72 39.6L58.11 22.81L61.44 22.81L66.85 39.6L66.85 39.6Z" fill="#FFFFFF" fill-opacity="1.000000" fill-rule="evenodd"/>
		</g>
		<mask id="mask115_256" mask-type="alpha" maskUnits="userSpaceOnUse" x="52.729614" y="8.126465" width="100.212036" height="36.383301">
			<path id="Vector" d="M52.72 8.12L152.94 8.12L152.94 44.5L52.72 44.5L52.72 8.12Z" fill="#FFFFFF" fill-opacity="1.000000" fill-rule="nonzero"/>
		</mask>
		<g mask="url(#mask115_256)">
			<path id="Vector" d="M77.94 33.5C77.94 32.32 77.68 31.35 77.15 30.58C76.57 29.79 75.79 29.39 74.81 29.39C74.15 29.39 73.55 29.61 73.01 30.05C72.47 30.49 72.1 31.1 71.96 31.78C71.88 32.11 71.83 32.38 71.83 32.6L71.83 34.62C71.83 35.5 72.1 36.24 72.64 36.85C73.18 37.45 73.88 37.76 74.74 37.76C75.74 37.76 76.53 37.37 77.09 36.59C77.66 35.81 77.94 34.78 77.94 33.5L77.94 33.5ZM80.67 33.4C80.67 35.46 80.11 37.09 79 38.28C78 39.34 76.76 39.88 75.28 39.88C73.68 39.88 72.53 39.3 71.83 38.16L71.83 44.51L69.16 44.51L69.16 31.48C69.16 30.18 69.13 28.85 69.06 27.5L71.42 27.5L71.57 29.42L71.62 29.42C72.51 27.97 73.87 27.25 75.69 27.25C77.11 27.25 78.3 27.81 79.25 28.94C80.2 30.07 80.67 31.56 80.67 33.4L80.67 33.4Z" fill="#FFFFFF" fill-opacity="1.000000" fill-rule="evenodd"/>
		</g>
		<mask id="mask115_260" mask-type="alpha" maskUnits="userSpaceOnUse" x="52.729614" y="8.126465" width="100.212036" height="36.383301">
			<path id="Vector" d="M52.72 8.12L152.94 8.12L152.94 44.5L52.72 44.5L52.72 8.12Z" fill="#FFFFFF" fill-opacity="1.000000" fill-rule="nonzero"/>
		</mask>
		<g mask="url(#mask115_260)">
			<path id="Vector" d="M91.81 33.5C91.81 32.32 91.55 31.35 91.01 30.58C90.44 29.79 89.66 29.39 88.69 29.39C88.02 29.39 87.43 29.61 86.88 30.05C86.35 30.49 85.97 31.1 85.83 31.78C85.75 32.11 85.71 32.38 85.71 32.6L85.71 34.62C85.71 35.5 85.97 36.24 86.51 36.85C87.05 37.45 87.75 37.76 88.61 37.76C89.62 37.76 90.41 37.37 90.97 36.59C91.53 35.81 91.81 34.78 91.81 33.5L91.81 33.5ZM94.54 33.4C94.54 35.46 93.98 37.09 92.87 38.28C91.87 39.34 90.63 39.88 89.15 39.88C87.55 39.88 86.4 39.3 85.71 38.16L85.71 44.51L83.02 44.51L83.02 31.48C83.02 30.18 82.99 28.85 82.93 27.5L85.28 27.5L85.43 29.42L85.48 29.42C86.38 27.97 87.73 27.25 89.55 27.25C90.97 27.25 92.16 27.81 93.11 28.94C94.06 30.07 94.54 31.56 94.54 33.4Z" fill="#FFFFFF" fill-opacity="1.000000" fill-rule="evenodd"/>
		</g>
		<path id="Vector" d="M110.06 34.89C110.06 36.32 109.56 37.48 108.57 38.38C107.48 39.35 105.96 39.85 104.01 39.85C102.21 39.85 100.77 39.5 99.68 38.8L100.3 36.56C101.47 37.25 102.77 37.6 104.17 37.6C105.18 37.6 105.97 37.38 106.53 36.92C107.09 36.46 107.38 35.85 107.38 35.09C107.38 34.41 107.14 33.84 106.68 33.37C106.22 32.91 105.45 32.47 104.37 32.08C101.44 30.98 99.98 29.38 99.98 27.27C99.98 25.89 100.5 24.76 101.53 23.88C102.56 23 103.93 22.56 105.64 22.56C107.16 22.56 108.43 22.83 109.44 23.36L108.76 25.55C107.81 25.04 106.75 24.78 105.55 24.78C104.6 24.78 103.86 25.01 103.33 25.48C102.88 25.89 102.66 26.4 102.66 27C102.66 27.66 102.92 28.21 103.43 28.64C103.88 29.04 104.69 29.47 105.86 29.94C107.3 30.52 108.36 31.2 109.04 31.98C109.72 32.76 110.06 33.73 110.06 34.89L110.06 34.89ZM118.94 29.51L115.99 29.51L115.99 35.39C115.99 36.89 116.51 37.63 117.55 37.63C118.03 37.63 118.43 37.59 118.74 37.51L118.82 39.55C118.29 39.75 117.6 39.85 116.73 39.85C115.67 39.85 114.85 39.52 114.25 38.88C113.66 38.23 113.36 37.14 113.36 35.61L113.36 29.5L111.6 29.5L111.6 27.49L113.36 27.49L113.36 25.27L115.99 24.48L115.99 27.49L118.94 27.49L118.94 29.51L118.94 29.51ZM129.46 33.51C129.46 32.4 129.23 31.45 128.75 30.65C128.18 29.69 127.38 29.21 126.34 29.21C125.26 29.21 124.44 29.69 123.88 30.65C123.4 31.45 123.16 32.42 123.16 33.56C123.16 34.67 123.4 35.62 123.88 36.42C124.46 37.38 125.27 37.86 126.32 37.86C127.34 37.86 128.14 37.37 128.73 36.39C129.22 35.58 129.46 34.62 129.46 33.51ZM132.24 33.45C132.24 35.31 131.71 36.84 130.65 38.03C129.54 39.26 128.07 39.88 126.23 39.88C124.46 39.88 123.05 39.29 122 38.11C120.95 36.93 120.43 35.44 120.43 33.65C120.43 31.78 120.97 30.24 122.05 29.04C123.14 27.85 124.6 27.25 126.43 27.25C128.2 27.25 129.62 27.84 130.7 29.02C131.73 30.16 132.24 31.64 132.24 33.45L132.24 33.45ZM140.96 29.86C140.68 29.81 140.39 29.79 140.11 29.79C139.17 29.79 138.44 30.15 137.93 30.86C137.48 31.49 137.26 32.29 137.26 33.25L137.26 39.6L134.58 39.6L134.58 31.31C134.58 29.92 134.55 28.64 134.5 27.5L136.83 27.5L136.93 29.81L137 29.81C137.29 29.02 137.73 28.38 138.34 27.9C138.9 27.48 139.58 27.25 140.28 27.25C140.53 27.25 140.75 27.27 140.95 27.3L140.95 29.86L140.96 29.86ZM150.38 32.28C150.4 31.48 150.23 30.79 149.87 30.21C149.4 29.46 148.69 29.09 147.73 29.09C146.85 29.09 146.14 29.45 145.6 30.19C145.15 30.77 144.88 31.46 144.8 32.28L150.38 32.28ZM152.94 32.98C152.94 33.46 152.91 33.86 152.84 34.2L144.8 34.2C144.83 35.39 145.22 36.31 145.97 36.94C146.64 37.5 147.52 37.78 148.6 37.78C149.79 37.78 150.87 37.59 151.85 37.21L152.27 39.08C151.13 39.58 149.78 39.83 148.23 39.83C146.36 39.83 144.89 39.27 143.82 38.17C142.76 37.07 142.22 35.58 142.22 33.72C142.22 31.9 142.72 30.38 143.71 29.17C144.75 27.87 146.16 27.23 147.93 27.23C149.67 27.23 150.98 27.87 151.88 29.17C152.58 30.19 152.94 31.46 152.94 32.97L152.94 32.98ZM58.26 13.36L57.57 11.21C57.49 10.99 57.36 10.47 57.15 9.65L57.13 9.65C57.04 10.01 56.92 10.52 56.73 11.21L56.05 13.36L58.26 13.36ZM60.66 16.8L59.26 16.8L58.49 14.38L55.82 14.38L55.09 16.8L53.72 16.8L56.37 8.55L58 8.55L60.66 16.8ZM67.28 10.85L65.04 16.8L63.76 16.8L61.59 10.85L63 10.85L64.01 14C64.18 14.53 64.33 15.03 64.44 15.5L64.48 15.5C64.58 15.07 64.72 14.57 64.9 14L65.9 10.85L67.28 10.85L67.28 10.85ZM71.88 13.84C70.41 13.84 69.68 14.19 69.68 15.04C69.68 15.66 70.06 15.97 70.59 15.97C71.26 15.97 71.88 15.45 71.88 14.76L71.88 13.84L71.88 13.84ZM72.06 16.8L71.96 16.12L71.93 16.12C71.53 16.67 70.94 16.94 70.2 16.94C69.13 16.94 68.38 16.19 68.38 15.19C68.38 13.72 69.64 12.96 71.84 12.96L71.84 12.85C71.84 12.06 71.42 11.67 70.61 11.67C70.06 11.66 69.52 11.82 69.06 12.11L68.79 11.24C69.34 10.9 70.02 10.73 70.83 10.73C72.38 10.73 73.16 11.55 73.16 13.19L73.16 15.38C73.16 15.98 73.18 16.45 73.24 16.8L72.06 16.8L72.06 16.8Z" fill="#FFFFFF" fill-opacity="1.000000" fill-rule="evenodd"/>
		<mask id="mask115_265" mask-type="alpha" maskUnits="userSpaceOnUse" x="52.729614" y="8.126465" width="100.212036" height="36.383301">
			<path id="Vector" d="M52.72 8.12L152.94 8.12L152.94 44.5L52.72 44.5L52.72 8.12L52.72 8.12Z" fill="#FFFFFF" fill-opacity="1.000000" fill-rule="nonzero"/>
		</mask>
		<g mask="url(#mask115_265)">
			<path id="Vector" d="M76.78 16.8L75.46 16.8L75.46 10.85L76.78 10.85L76.78 16.8ZM76.1 9.87C75.99 9.87 75.89 9.85 75.79 9.81C75.7 9.77 75.61 9.71 75.54 9.64C75.46 9.56 75.41 9.48 75.37 9.38C75.33 9.28 75.31 9.18 75.32 9.08C75.32 8.63 75.67 8.29 76.12 8.29C76.57 8.29 76.94 8.63 76.93 9.08C76.93 9.56 76.58 9.87 76.1 9.87L76.1 9.87ZM80.44 16.8L79.12 16.8L79.12 8.12L80.44 8.12L80.44 16.8ZM85.85 13.84C84.39 13.84 83.66 14.19 83.66 15.04C83.66 15.66 84.03 15.97 84.56 15.97C85.23 15.97 85.85 15.45 85.85 14.76L85.85 13.84L85.85 13.84ZM86.04 16.8L85.94 16.12L85.9 16.12C85.5 16.67 84.91 16.94 84.17 16.94C83.11 16.94 82.35 16.19 82.35 15.19C82.35 13.72 83.62 12.96 85.82 12.96L85.82 12.85C85.82 12.06 85.4 11.67 84.58 11.67C84 11.67 83.49 11.82 83.04 12.11L82.77 11.24C83.32 10.9 84 10.73 84.81 10.73C86.36 10.73 87.14 11.55 87.14 13.19L87.14 15.38C87.14 15.98 87.16 16.45 87.22 16.8L86.04 16.8ZM92.2 11.77C91.45 11.77 90.75 12.43 90.75 13.35L90.75 14.39C90.75 15.21 91.37 15.88 92.18 15.88C93.17 15.88 93.75 15.07 93.75 13.79C93.75 12.59 93.14 11.77 92.2 11.77L92.2 11.77ZM92.47 16.94C91.63 16.94 91.01 16.58 90.6 15.88L90.58 15.88L90.5 16.8L89.38 16.8C89.41 16.32 89.43 15.79 89.43 15.2L89.43 8.12L90.75 8.12L90.75 11.72L90.77 11.72C91.16 11.06 91.79 10.73 92.66 10.73C94.09 10.73 95.09 11.95 95.09 13.74C95.09 15.59 93.98 16.94 92.47 16.94L92.47 16.94ZM98.36 16.8L97.04 16.8L97.04 8.12L98.36 8.12L98.36 16.8ZM104.32 13.2C104.32 12.29 103.86 11.64 103.02 11.64C102.26 11.64 101.66 12.3 101.57 13.2L104.32 13.2ZM105.53 14.14L101.57 14.14C101.6 15.27 102.34 15.91 103.44 15.91C104.03 15.91 104.56 15.81 105.04 15.63L105.24 16.54C104.68 16.79 104.02 16.91 103.25 16.91C101.4 16.91 100.3 15.74 100.3 13.91C100.3 12.09 101.43 10.72 103.11 10.72C104.62 10.72 105.57 11.84 105.57 13.54C105.58 13.77 105.56 13.98 105.53 14.14L105.53 14.14ZM113.56 11.7C112.61 11.7 112 12.59 112 13.84C112 15.06 112.63 15.95 113.56 15.95C114.48 15.95 115.1 15 115.1 13.81C115.1 12.6 114.49 11.69 113.57 11.69L113.56 11.7ZM113.51 16.94C111.78 16.94 110.66 15.64 110.66 13.88C110.66 12.04 111.81 10.73 113.61 10.73C115.32 10.73 116.47 11.96 116.47 13.78C116.47 15.64 115.28 16.94 113.51 16.94L113.51 16.94ZM123.55 16.8L122.24 16.8L122.24 13.39C122.24 12.34 121.83 11.81 121.04 11.81C120.26 11.81 119.72 12.48 119.72 13.27L119.72 16.8L118.4 16.8L118.4 12.55C118.4 12.03 118.39 11.46 118.35 10.85L119.51 10.85L119.58 11.77L119.61 11.77C119.96 11.13 120.69 10.73 121.49 10.73C122.73 10.73 123.55 11.68 123.55 13.24L123.55 16.8L123.55 16.8ZM132.17 11.84L130.72 11.84L130.72 14.73C130.72 15.47 130.97 15.84 131.48 15.84C131.72 15.84 131.91 15.81 132.07 15.78L132.11 16.78C131.85 16.88 131.51 16.93 131.09 16.93C130.05 16.93 129.43 16.35 129.43 14.84L129.43 11.84L128.56 11.84L128.56 10.85L129.43 10.85L129.43 9.76L130.72 9.37L130.72 10.85L132.17 10.85L132.17 11.84L132.17 11.84ZM139.14 16.8L137.83 16.8L137.83 13.41C137.83 12.35 137.42 11.81 136.63 11.81C135.95 11.81 135.31 12.27 135.31 13.22L135.31 16.81L134 16.81L134 8.12L135.31 8.12L135.31 11.7L135.34 11.7C135.75 11.05 136.35 10.73 137.12 10.73C138.38 10.73 139.14 11.71 139.14 13.26L139.14 16.8ZM144.67 13.21C144.67 12.29 144.21 11.64 143.36 11.64C142.61 11.64 142.01 12.3 141.92 13.21L144.67 13.21L144.67 13.21ZM145.88 14.15L141.92 14.15C141.95 15.27 142.69 15.91 143.79 15.91C144.37 15.91 144.91 15.81 145.38 15.63L145.59 16.54C145.03 16.79 144.37 16.91 143.6 16.91C141.75 16.91 140.65 15.74 140.65 13.91C140.65 12.09 141.77 10.72 143.45 10.72C144.97 10.72 145.92 11.85 145.92 13.55C145.92 13.78 145.91 13.99 145.88 14.14L145.88 14.15Z" fill="#FFFFFF" fill-opacity="1.000000" fill-rule="evenodd"/>
		</g>
	</g>
</svg>
