<svg width="80.000000" height="56.000000" viewBox="0 0 80 56" fill="none" xmlns="http://www.w3.org/2000/svg" xmlns:xlink="http://www.w3.org/1999/xlink">
	<desc>
			Created with Pixso.
	</desc>
	<defs/>
	<path id="Vector" d="M32 40L52.76 28L32 16L32 40ZM78.24 8.67C78.76 10.56 79.12 13.08 79.36 16.28C79.64 19.48 79.76 22.24 79.76 24.63L80 28C80 36.75 79.36 43.2 78.24 47.32C77.24 50.91 74.92 53.24 71.31 54.24C69.43 54.76 66 55.12 60.72 55.36C55.52 55.63 50.76 55.76 46.36 55.76L40 56C23.24 56 12.8 55.36 8.68 54.24C5.07 53.24 2.76 50.91 1.76 47.32C1.23 45.43 0.88 42.91 0.64 39.72C0.35 36.52 0.23 33.75 0.23 31.36L0 28C0 19.24 0.64 12.8 1.76 8.67C2.76 5.08 5.07 2.76 8.68 1.76C10.56 1.23 14 0.87 19.28 0.63C24.48 0.36 29.24 0.23 33.64 0.23L40 0C56.76 0 67.19 0.63 71.31 1.76C74.92 2.76 77.24 5.08 78.24 8.67Z" fill="#FA4141" fill-opacity="1.000000" fill-rule="nonzero"/>
</svg>
